# xmcd
#
# Track frame offsets: 
#        150
#        15076
#        27438
#        43176
#        65826
#        92135
#        110575
#        126187
#        143151
#
# Disc length: 2237 seconds
#
# Revision: 2
# Processed by: cddbd v1.5.2PL0 Copyright (c) Steve Scherf et al.
# Submitted via: ExactAudioCopy v0.99pb4
#
DISCID=7a08bb09
DTITLE=Amy MacDonald - This Is Life (Bonus CD Deluxe Edition)
DYEAR=2008
DGENRE=Folk/Rock
TTITLE0=This is the live (acoustic version)
TTITLE1=This much is true
TTITLE2=Somebody new
TTITLE3=Footballers's Wife (live from Glasgow Barrowlands)
TTITLE4=Fairy tale of New York (live from Glasgow Barrowlands)
TTITLE5=Mr Brightside (live from Glasgow Barrowlands)
TTITLE6=Mr Rock and Roll (live from Glasgow Barrowlands)
TTITLE7=Rockbottom
TTITLE8=the road to home
EXTD=
EXTT0=
EXTT1=
EXTT2=
EXTT3=
EXTT4=
EXTT5=
EXTT6=
EXTT7=
EXTT8=
PLAYORDER=
